<svg width="192" height="192" viewBox="0 0 192 192" fill="none" xmlns="http://www.w3.org/2000/svg">
  <rect width="192" height="192" rx="32" fill="#4f46e5"/>
  <text x="96" y="132" font-family="Arial, sans-serif" font-size="108" font-weight="bold" text-anchor="middle" fill="white">L</text>
  <circle cx="132" cy="72" r="12" fill="#fbbf24"/>
</svg>
    <linearGradient id="cardGrad192" x1="0%" y1="0%" x2="100%" y2="100%">
      <stop offset="0%" style="stop-color:#ffffff"/>
      <stop offset="100%" style="stop-color:#f8fafc"/>
    </linearGradient>
    <filter id="cardShadow192" x="-30%" y="-30%" width="160%" height="160%">
      <feDropShadow dx="0" dy="6" stdDeviation="8" flood-color="#000" flood-opacity="0.2"/>
    </filter>
    <filter id="glow192" x="-50%" y="-50%" width="200%" height="200%">
      <feDropShadow dx="0" dy="0" stdDeviation="4" flood-color="#6366f1" flood-opacity="0.3"/>
    </filter>
  </defs>
  
  <!-- Main background -->
  <rect width="192" height="192" rx="42" fill="url(#mainGrad192)"/>
  
  <!-- Flashcard stack (multiple cards for depth) -->
  <rect x="42" y="36" width="96" height="66" rx="15" fill="rgba(255,255,255,0.15)" transform="rotate(-3 90 69)"/>
  <rect x="39" y="42" width="96" height="66" rx="15" fill="rgba(255,255,255,0.25)" transform="rotate(2 87 75)"/>
  <rect x="42" y="48" width="96" height="66" rx="15" fill="url(#cardGrad192)" stroke="rgba(0,0,0,0.08)" stroke-width="2" filter="url(#cardShadow192)"/>
  
  <!-- Card content (flashcard text) -->
  <rect x="54" y="63" width="48" height="9" rx="3" fill="#1e293b"/>
  <rect x="54" y="78" width="30" height="6" rx="2" fill="#64748b"/>
  <rect x="54" y="90" width="36" height="6" rx="2" fill="#94a3b8"/>
  
  <!-- Letter L (Lingento brand) -->
  <path d="M48 126 L66 126 L66 165 L102 165 L102 177 L48 177 Z" fill="#ffffff" opacity="0.95" filter="url(#glow192)"/>
  
  <!-- French language accent -->
  <path d="M120 54 Q126 48 132 54 Q126 60 120 54" fill="#ef4444" opacity="0.8"/>
  
  <!-- Success/completion indicator -->
  <circle cx="156" cy="60" r="12" fill="#10b981"/>
  <path d="M150 60 L154.2 64.2 L162 56.4" stroke="#ffffff" stroke-width="3" stroke-linecap="round" fill="none"/>
  
  <!-- Memory/learning connection dots -->
  <circle cx="30" cy="156" r="9" fill="#fbbf24" opacity="0.8"/>
  <circle cx="162" cy="150" r="6" fill="#f59e0b" opacity="0.6"/>
  <circle cx="48" cy="30" r="4.5" fill="#06b6d4" opacity="0.7"/>
  
  <!-- Learning progress indicators -->
  <circle cx="138" cy="132" r="4" fill="#22c55e" opacity="0.8"/>
  <circle cx="150" cy="126" r="3" fill="#16a34a" opacity="0.7"/>
  <circle cx="162" cy="132" r="2.5" fill="#15803d" opacity="0.6"/>
  
  <!-- Vocabulary words floating -->
  <rect x="24" y="120" width="18" height="3" rx="1.5" fill="rgba(255,255,255,0.4)"/>
  <rect x="24" y="126" width="12" height="3" rx="1.5" fill="rgba(255,255,255,0.3)"/>
  
  <!-- Premium top highlight -->
  <rect width="192" height="36" rx="42" fill="rgba(255,255,255,0.12)"/>
</svg>
